<mxfile host="Electron" agent="Mozilla/5.0 (Macintosh; Intel Mac OS X 10_15_7) AppleWebKit/537.36 (KHTML, like Gecko) draw.io/28.1.2 Chrome/138.0.7204.243 Electron/37.4.0 Safari/537.36" version="28.1.2">
  <diagram name="Page-1" id="ln40mMG4KhUZC7iTvJjb">
    <mxGraphModel dx="1426" dy="783" grid="1" gridSize="10" guides="1" tooltips="1" connect="1" arrows="1" fold="1" page="1" pageScale="1" pageWidth="850" pageHeight="1100" math="0" shadow="0">
      <root>
        <mxCell id="0" />
        <mxCell id="1" parent="0" />
        <mxCell id="upD7hMqpwrD7uZ_orzZ--1" value="" style="endArrow=none;html=1;rounded=0;strokeWidth=3;" parent="1" edge="1">
          <mxGeometry width="50" height="50" relative="1" as="geometry">
            <mxPoint x="50" y="380" as="sourcePoint" />
            <mxPoint x="810" y="380" as="targetPoint" />
          </mxGeometry>
        </mxCell>
        <mxCell id="upD7hMqpwrD7uZ_orzZ--2" value="Execution" style="text;html=1;align=center;verticalAlign=middle;whiteSpace=wrap;rounded=0;" parent="1" vertex="1">
          <mxGeometry x="50" y="350" width="60" height="30" as="geometry" />
        </mxCell>
        <mxCell id="upD7hMqpwrD7uZ_orzZ--3" value="Consensus" style="text;html=1;align=center;verticalAlign=middle;whiteSpace=wrap;rounded=0;" parent="1" vertex="1">
          <mxGeometry x="50" y="380" width="60" height="30" as="geometry" />
        </mxCell>
        <mxCell id="AxEKE1xbinyN95WBTSia-1" style="edgeStyle=orthogonalEdgeStyle;rounded=0;orthogonalLoop=1;jettySize=auto;html=1;exitX=0.5;exitY=1;exitDx=0;exitDy=0;entryX=0.5;entryY=0;entryDx=0;entryDy=0;" edge="1" parent="1" source="upD7hMqpwrD7uZ_orzZ--5" target="upD7hMqpwrD7uZ_orzZ--6">
          <mxGeometry relative="1" as="geometry" />
        </mxCell>
        <mxCell id="AxEKE1xbinyN95WBTSia-2" value="quiescence&lt;br&gt;status" style="edgeLabel;html=1;align=center;verticalAlign=middle;resizable=0;points=[];" vertex="1" connectable="0" parent="AxEKE1xbinyN95WBTSia-1">
          <mxGeometry x="-0.4182" relative="1" as="geometry">
            <mxPoint as="offset" />
          </mxGeometry>
        </mxCell>
        <mxCell id="upD7hMqpwrD7uZ_orzZ--5" value="Quiescence&lt;br&gt;Controller" style="rounded=1;whiteSpace=wrap;html=1;" parent="1" vertex="1">
          <mxGeometry x="330" y="260" width="120" height="60" as="geometry" />
        </mxCell>
        <mxCell id="upD7hMqpwrD7uZ_orzZ--6" value="Event&lt;br&gt;Creator" style="rounded=1;whiteSpace=wrap;html=1;" parent="1" vertex="1">
          <mxGeometry x="330" y="430" width="120" height="60" as="geometry" />
        </mxCell>
        <mxCell id="upD7hMqpwrD7uZ_orzZ--7" value="" style="endArrow=classic;html=1;rounded=0;entryX=0;entryY=0.75;entryDx=0;entryDy=0;" parent="1" target="upD7hMqpwrD7uZ_orzZ--5" edge="1">
          <mxGeometry width="50" height="50" relative="1" as="geometry">
            <mxPoint x="90" y="305" as="sourcePoint" />
            <mxPoint x="450" y="380" as="targetPoint" />
          </mxGeometry>
        </mxCell>
        <mxCell id="upD7hMqpwrD7uZ_orzZ--8" value="number of pending transactions" style="edgeLabel;html=1;align=center;verticalAlign=middle;resizable=0;points=[];" parent="upD7hMqpwrD7uZ_orzZ--7" vertex="1" connectable="0">
          <mxGeometry x="-0.0767" y="-1" relative="1" as="geometry">
            <mxPoint as="offset" />
          </mxGeometry>
        </mxCell>
        <mxCell id="upD7hMqpwrD7uZ_orzZ--9" value="" style="endArrow=classic;html=1;rounded=0;entryX=0;entryY=0.25;entryDx=0;entryDy=0;" parent="1" target="upD7hMqpwrD7uZ_orzZ--5" edge="1">
          <mxGeometry width="50" height="50" relative="1" as="geometry">
            <mxPoint x="90" y="275" as="sourcePoint" />
            <mxPoint x="290" y="260" as="targetPoint" />
          </mxGeometry>
        </mxCell>
        <mxCell id="upD7hMqpwrD7uZ_orzZ--10" value="fully signed blocks" style="edgeLabel;html=1;align=center;verticalAlign=middle;resizable=0;points=[];" parent="upD7hMqpwrD7uZ_orzZ--9" vertex="1" connectable="0">
          <mxGeometry x="-0.0767" y="-1" relative="1" as="geometry">
            <mxPoint as="offset" />
          </mxGeometry>
        </mxCell>
        <mxCell id="upD7hMqpwrD7uZ_orzZ--11" value="" style="endArrow=classic;html=1;rounded=0;entryX=1;entryY=0.25;entryDx=0;entryDy=0;" parent="1" target="upD7hMqpwrD7uZ_orzZ--5" edge="1">
          <mxGeometry width="50" height="50" relative="1" as="geometry">
            <mxPoint x="690" y="275" as="sourcePoint" />
            <mxPoint x="670" y="280" as="targetPoint" />
          </mxGeometry>
        </mxCell>
        <mxCell id="upD7hMqpwrD7uZ_orzZ--13" value="TCT timestamps" style="edgeLabel;html=1;align=center;verticalAlign=middle;resizable=0;points=[];" parent="upD7hMqpwrD7uZ_orzZ--11" vertex="1" connectable="0">
          <mxGeometry x="-0.0037" y="-1" relative="1" as="geometry">
            <mxPoint as="offset" />
          </mxGeometry>
        </mxCell>
        <mxCell id="upD7hMqpwrD7uZ_orzZ--14" value="" style="endArrow=classic;html=1;rounded=1;entryX=1;entryY=0.5;entryDx=0;entryDy=0;curved=0;" parent="1" target="upD7hMqpwrD7uZ_orzZ--5" edge="1">
          <mxGeometry width="50" height="50" relative="1" as="geometry">
            <mxPoint x="690" y="430" as="sourcePoint" />
            <mxPoint x="500" y="300" as="targetPoint" />
            <Array as="points">
              <mxPoint x="690" y="290" />
            </Array>
          </mxGeometry>
        </mxCell>
        <mxCell id="upD7hMqpwrD7uZ_orzZ--15" value="pre-consensus events" style="edgeLabel;html=1;align=center;verticalAlign=middle;resizable=0;points=[];" parent="upD7hMqpwrD7uZ_orzZ--14" vertex="1" connectable="0">
          <mxGeometry x="-0.0037" y="-1" relative="1" as="geometry">
            <mxPoint x="-71" as="offset" />
          </mxGeometry>
        </mxCell>
        <mxCell id="upD7hMqpwrD7uZ_orzZ--18" value="" style="endArrow=classic;html=1;rounded=1;entryX=1;entryY=0.75;entryDx=0;entryDy=0;curved=0;" parent="1" target="upD7hMqpwrD7uZ_orzZ--5" edge="1">
          <mxGeometry width="50" height="50" relative="1" as="geometry">
            <mxPoint x="670" y="430" as="sourcePoint" />
            <mxPoint x="480" y="325" as="targetPoint" />
            <Array as="points">
              <mxPoint x="670" y="305" />
            </Array>
          </mxGeometry>
        </mxCell>
        <mxCell id="upD7hMqpwrD7uZ_orzZ--19" value="stale events" style="edgeLabel;html=1;align=center;verticalAlign=middle;resizable=0;points=[];" parent="upD7hMqpwrD7uZ_orzZ--18" vertex="1" connectable="0">
          <mxGeometry x="-0.0037" y="-1" relative="1" as="geometry">
            <mxPoint x="-71" as="offset" />
          </mxGeometry>
        </mxCell>
      </root>
    </mxGraphModel>
  </diagram>
</mxfile>
